<svg width="180" height="180" viewBox="0 0 180 180" fill="none" xmlns="http://www.w3.org/2000/svg">
  <style>
    /* Light mode (défaut) */
    .favicon-bg { fill: #FFF8F5; }
    .favicon-fg { fill: #1F2937; }
    /* Dark mode */
    @media (prefers-color-scheme: dark) {
      .favicon-bg { fill: #1a1a2e; }
      .favicon-fg { fill: #FFF8F5; }
    }
  </style>
  <rect class="favicon-bg" width="180" height="180" rx="32"/>
  <path class="favicon-fg" d="M100.812 35.0672C88.5537 36.4518 87.7195 56.3887 88.0417 65.6008L88.9738 76.372C89.0574 77.3372 88.6898 78.2868 87.9782 78.9443L86.8495 79.9871C85.0205 81.677 86.2995 84.1435 88.7862 84.0122C94.0558 83.7306 98.3482 84.9573 98.6917 90.9181C99.2168 100.068 90.0773 108.905 82.2146 112.494C81.8648 112.654 81.711 112.942 82.0787 113.054C82.5078 113.187 84.9249 113.579 86.4228 113.746C87.1441 113.827 87.5039 113.338 87.3339 112.633C87.1273 111.775 87.7137 111.164 88.026 111.989C88.2744 112.645 88.4315 113.495 88.6412 113.946C91.4146 119.922 98.9157 119.18 102.048 114.079C102.217 113.802 102.356 113.52 102.478 113.235C103.22 111.519 104.044 111.262 103.599 113.078C103.515 113.417 103.573 113.406 103.887 113.366C106.526 113.031 110.487 111.482 112.798 110.142C123.981 103.655 122.782 91.5666 122.315 80.283C122.27 79.2076 122.224 78.1333 122.171 77.0602C121.878 71.1873 117.002 67.2553 111.127 66.9939C107.885 66.8488 106.63 66.7613 104.106 64.6493C97.2388 58.9018 104.384 53.005 110.334 51.0743C114.77 49.6336 117.163 49.1742 115.135 44.9738C114.8 44.2802 114.529 43.7466 114.394 43.5135C112.265 39.8397 108.469 35.6369 104.006 35.0672C103.27 34.9734 101.561 34.9819 100.812 35.0672Z"/>
  <path class="favicon-fg" d="M59.3914 103.019C57.2776 105.627 60.347 107.543 63.343 106.029C64.9794 105.206 70.3108 102.605 71.8085 102.351C72.8026 102.183 73.0544 102.735 72.0879 103.279C69.963 104.474 66.8226 105.376 64.4823 106.528C61.3504 108.071 56.674 110.635 54.5128 113.372C50.1862 118.855 60.3221 118.384 63.2129 118.025C75.3542 116.521 98.0239 106.149 97.753 91.5987C97.6314 85.0682 93.2195 84.68 87.7259 85.0746C82.2324 85.4693 66.5944 90.4445 63.678 95.0825C62.7841 96.5034 63.8487 97.7088 65.2674 97.3226C66.6434 96.9471 69.227 95.3855 70.8036 94.7583C71.8149 94.355 75.6998 92.8083 76.4849 92.7656C77.1184 92.7319 76.6222 93.6157 76.0332 93.8516C73.3476 94.9274 70.5787 95.7731 67.9555 97.0197C65.0669 98.392 61.5638 100.339 59.3914 103.019ZM80.2717 107.63C80.2717 107.631 80.2722 107.631 80.2728 107.631C81.1679 107.737 82.2014 107.593 83.1496 107.611C83.3992 107.615 83.6033 107.802 83.6482 108.048C83.6746 108.192 83.6453 108.349 83.5171 108.421C82.6084 108.929 79.2728 108.425 78.4647 108.163C73.7272 106.62 78.081 101.934 80.2239 99.9652C80.3104 99.8857 80.3448 99.7666 80.315 99.653C80.2954 99.5784 80.2461 99.5121 80.183 99.4677C76.9955 97.2244 80.717 93.5346 82.7145 91.7736C83.2884 91.268 87.0646 88.3921 87.5019 88.4775C89.0721 88.7868 85.4944 90.7858 85.2895 90.9437C82.8254 92.851 76.2246 97.9968 82.674 99.4795C83.5487 99.6801 84.6751 99.6161 85.3343 99.7995C85.9936 99.983 86.0106 100.781 85.3791 100.841C84.3807 100.935 82.3134 100.079 81.5966 100.226C80.544 100.442 76.9502 104.475 77.3511 106.203C77.387 106.358 77.4564 106.508 77.5759 106.613C78.1025 107.072 79.8175 107.576 80.2708 107.629C80.2714 107.629 80.2717 107.63 80.2717 107.63Z"/>
  <path class="favicon-fg" d="M129.973 66.137C129.973 66.1355 129.973 66.1338 129.971 66.1334L106.719 60.4767C106.509 60.4258 106.374 60.2232 106.406 60.0102C106.431 59.8496 106.547 59.7181 106.703 59.6737L106.853 59.631C106.97 59.5978 107.093 59.5975 107.21 59.6298C111.5 60.8189 115.838 61.8638 120.18 62.8423C123.934 63.6892 130.697 65.6434 134.222 65.8269C137.528 65.9997 137.688 64.1116 135.728 61.9825C131.44 57.3274 120.444 53.2675 114.261 52.1602C111.452 51.6567 111.119 51.6055 108.542 52.9048C105.115 54.6286 99.9611 58.1338 103.159 62.4092C103.806 63.2732 106.79 65.6584 107.774 65.8824C109.246 66.2152 112.215 65.8653 113.912 65.9186C114.415 65.9336 114.88 66.1363 115.384 66.1491C120.239 66.2643 125.115 66.0467 129.97 66.1384C129.971 66.1384 129.972 66.1378 129.973 66.137Z"/>
  <path class="favicon-fg" d="M55.6823 98.2738C55.6828 98.2732 55.6838 98.2737 55.6837 98.2745L55.5985 98.8199C55.5893 98.8789 55.5516 98.9296 55.4978 98.9554L55.3345 99.0337C55.2279 99.0848 55.1071 99.0986 54.992 99.0719C52.0253 98.3856 49.1963 97.2745 46.5253 95.825C45.5994 95.3215 44.441 93.9049 43.6644 94.8735C41.516 97.5509 44.6415 99.9083 46.8133 101.071C47.8617 101.631 53.4304 103.75 56.051 104.315C56.893 104.497 57.5405 103.983 58.0322 103.276C58.2409 102.976 58.4633 102.686 58.6974 102.406C60.6312 100.094 62.1287 94.7342 64.5719 92.9691C65.0169 92.6476 65.1827 92.2516 64.8388 91.8237C63.6862 90.3898 60.5854 87.2577 60.1557 86.8838C59.2217 86.0699 57.9843 85.0879 56.6956 84.4016C53.0318 82.4508 53.6316 87.3267 56.6463 90.1799C57.3055 90.805 59.3173 92.883 59.6245 93.5891C59.8997 94.2228 59.2362 94.4382 58.6602 93.9113C54.852 90.4295 51.2743 85.0128 45.0298 86.4507C42.779 86.9691 40.8696 88.2918 42.0217 90.7538C43.707 94.3549 51.935 97.4739 55.6815 98.274C55.6818 98.2741 55.6821 98.274 55.6823 98.2738Z"/>
  <path class="favicon-fg" d="M116.566 112.891C116.566 111.14 114.654 110.06 113.154 110.963C112.49 111.363 112.077 112.076 112.071 112.851C112.049 115.497 112.113 118.127 112.317 120.757C112.415 122.028 111.545 122.425 111.508 121.152C111.494 120.649 111.188 120.551 110.692 120.469C108.382 120.088 105.622 120.529 106.449 123.602C107.142 126.175 109.553 125.625 111.452 126.26C115.411 127.587 114.682 130.89 116.26 133.796C117.63 136.319 120.188 137.403 122.417 135.082C124.54 132.874 122.492 130.879 120.713 129.343C120.286 128.976 118.27 128.055 118.697 127.425C119.104 126.824 121.575 128.763 121.989 129.132C124.347 131.227 128.752 134.734 128.465 131.593C128.293 129.706 126.44 127.33 124.237 126.243C123.493 125.876 121.677 125.512 121.255 125.181C120.617 124.684 121.421 124.413 121.963 124.455C123.416 124.569 125.245 125.506 126.676 126.763C128.604 128.456 131.379 129.672 131.442 127.107C131.502 124.517 124.796 122.934 122.816 122.768C120.986 122.612 118.528 123.489 117.323 121.876C117.176 121.68 116.566 120.419 116.566 120.293V112.891Z"/>
  <path class="favicon-fg" d="M98.0458 118.804C98.0455 118.804 98.045 118.804 98.0447 118.804L97.7792 118.662C97.6697 118.603 97.5397 118.599 97.4241 118.645C97.0533 118.791 96.6734 118.895 96.288 118.969C94.6314 119.287 93.2571 120.58 93.3817 122.262L93.8386 128.43C93.9328 129.701 93.025 130.103 92.9885 128.829C92.9737 128.315 92.662 128.207 92.1548 128.124C89.694 127.719 86.9065 128.298 88.0865 131.526C88.9569 133.907 91.0007 133.286 92.9315 133.917C97.7551 135.496 95.8372 140.838 99.4299 143.379C100.974 144.471 102.647 144.038 103.897 142.739C105.819 140.738 104.378 138.822 102.58 137.337C101.195 136.194 101.036 135.013 102.493 136.061C105.608 138.3 111.02 141.675 109.671 138.085C109.123 136.627 107.841 135.102 106.282 134.19C105.391 133.668 103.136 133.156 102.735 132.842C102.099 132.343 102.901 132.072 103.445 132.114C104.923 132.234 106.738 133.165 108.159 134.419C110.084 136.119 112.861 137.334 112.924 134.766C112.986 132.153 106.274 130.593 104.298 130.427C102.468 130.271 100.01 131.148 98.8048 129.535C98.6576 129.339 98.0474 128.078 98.0474 127.952V118.804C98.0474 118.803 98.0464 118.803 98.0458 118.804Z"/>
  <path class="favicon-fg" d="M127.639 76.8435C125.873 74.8672 123.183 76.7846 123.386 79.4275C123.246 82.5422 123.406 85.7457 123.427 88.9324C123.458 93.8245 128.137 96.5986 129.445 91.8845C130.943 86.4856 131.036 80.6443 127.639 76.8435Z"/>
</svg>
